<svg width="9" height="18" viewBox="0 0 9 18" fill="none" xmlns="http://www.w3.org/2000/svg">
<path fill-rule="evenodd" clip-rule="evenodd" d="M5.61984 6.51255C5.7193 6.5176 5.78747 6.52433 5.85564 6.52433C6.81673 6.52545 7.77781 6.52545 8.7389 6.52545C8.75398 6.52545 8.76963 6.52489 8.78528 6.52489C8.98587 6.52881 8.99928 6.54114 8.99984 6.73398C9.0004 6.8119 8.99817 6.88927 8.99817 6.96719C8.99817 7.74471 8.99817 8.52224 8.99817 9.29977C8.99817 9.59071 8.99481 9.59351 8.69587 9.59351C7.75043 9.59351 6.80499 9.59407 5.85955 9.59407C5.79082 9.59407 5.72209 9.59407 5.62654 9.59407C5.61984 9.70675 5.60866 9.80373 5.60866 9.90071C5.60755 12.2955 5.60755 14.6903 5.60699 17.0851C5.60699 17.3262 5.6081 17.5672 5.60643 17.8083C5.60643 17.8683 5.59693 17.9282 5.59078 18H2.29906C2.28956 17.9652 2.27504 17.9367 2.27504 17.9086C2.27615 15.4594 2.27783 13.0103 2.28006 10.5611C2.28006 10.3043 2.28342 10.0481 2.27951 9.7914C2.27727 9.61089 2.25771 9.59295 2.07611 9.59295C1.47152 9.59183 0.866933 9.59351 0.262343 9.59351C0.0142487 9.59351 0.00139693 9.5823 0.000838156 9.32836C-0.000279385 8.47291 -0.000279385 7.61746 0.000838156 6.76201C0.000838156 6.53554 0.0114548 6.52489 0.237198 6.52433C0.833966 6.52377 1.43073 6.52601 2.0275 6.52545C2.27112 6.52545 2.27504 6.51704 2.28006 6.27991C2.2918 5.75184 2.28509 5.22153 2.32477 4.69571C2.39852 3.73263 2.64941 2.81776 3.11431 1.96231C3.582 1.10238 4.31567 0.600656 5.22758 0.332698C5.52373 0.245247 5.82938 0.188628 6.13391 0.13257C6.96201 -0.0210293 7.7996 -0.00757534 8.63664 0.0109239C8.68302 0.012045 8.72884 0.0198932 8.77466 0.0271807C8.9909 0.063058 8.99928 0.0731484 8.99928 0.297381C8.99928 1.15283 8.99928 2.00828 8.99928 2.86316C8.99928 2.90969 9.0004 2.95678 8.99984 3.00331C8.99761 3.10085 8.94285 3.14346 8.85009 3.13897C8.77298 3.13505 8.69587 3.12664 8.61876 3.11879C8.04435 3.06385 7.47552 3.0874 6.90892 3.21129C6.2831 3.34919 5.65616 3.9165 5.65895 4.71925C5.66063 5.23947 5.62543 5.75969 5.60866 6.27991C5.60699 6.3483 5.61481 6.41669 5.61984 6.51255" fill="white"/>
</svg>
