<svg width="17" height="18" viewBox="0 0 17 18" fill="none" xmlns="http://www.w3.org/2000/svg">
<path fill-rule="evenodd" clip-rule="evenodd" d="M8.31608 15.6602V15.6651C9.22682 15.6651 10.1381 15.6651 11.0488 15.6645C11.568 15.6645 12.0871 15.6386 12.5921 15.5235C12.9184 15.449 13.2522 15.3528 13.5456 15.1967C14.2937 14.7991 14.7415 14.1553 14.9435 13.3347C15.0813 12.7729 15.1072 12.1976 15.1115 11.6278C15.1277 9.46055 15.1931 7.29173 15.0527 5.12615C15.0192 4.61352 14.9041 4.11547 14.6529 3.66064C14.1376 2.72829 13.2911 2.30857 12.2805 2.17569C11.838 2.11789 11.3881 2.09952 10.9408 2.09736C9.22088 2.08818 7.50041 2.0817 5.78047 2.09736C5.09282 2.1033 4.39869 2.10222 3.72995 2.31343C3.41557 2.41337 3.10874 2.52789 2.83541 2.71965C2.15209 3.19987 1.80151 3.8832 1.64486 4.67942C1.5379 5.2196 1.52494 5.77275 1.52278 6.31941C1.51521 8.25055 1.44391 10.1822 1.54925 12.1134C1.57734 12.6249 1.62757 13.1284 1.78801 13.6145C2.04783 14.4016 2.55668 14.9666 3.31833 15.3037C3.95088 15.5835 4.62773 15.6326 5.29971 15.6526C6.30445 15.6823 7.3108 15.6602 8.31608 15.6602ZM8.22067 17.1115C7.14409 17.1115 6.06805 17.1148 4.99147 17.1104C4.32921 17.1077 3.67668 17.0278 3.05115 16.7961C1.56889 16.2472 0.648429 15.1966 0.263821 13.6679C0.148222 13.2087 0.102307 12.742 0.0742177 12.271C-0.0446218 10.2772 0.0131774 8.28175 0.0201998 6.28741C0.0229007 5.54358 0.0752981 4.79651 0.256799 4.06727C0.544174 2.90912 1.18159 1.99838 2.1928 1.36151C2.73784 1.01795 3.34068 0.809444 3.97702 0.724635C4.45832 0.660894 4.94556 0.615519 5.43118 0.608497C7.12734 0.583108 8.82405 0.561501 10.5208 0.573925C11.2408 0.578787 11.9668 0.629024 12.6788 0.732738C14.0843 0.938006 15.1917 1.63646 15.9155 2.88157C16.2504 3.45849 16.4465 4.08834 16.5049 4.75438C16.5405 5.16059 16.5756 5.56789 16.5767 5.97518C16.5832 8.01814 16.5827 10.0606 16.5756 12.1035C16.5735 12.8463 16.4638 13.5744 16.1921 14.2713C15.8345 15.1896 15.2349 15.9075 14.3911 16.4125C13.8402 16.7426 13.2357 16.9306 12.6004 17.0267C11.8896 17.1348 11.1738 17.1013 10.4597 17.1115C9.71373 17.1223 8.9672 17.1142 8.22067 17.1142V17.1115Z" fill="white"/>
<path fill-rule="evenodd" clip-rule="evenodd" d="M8.30814 11.6398C9.78662 11.6635 11.1036 10.4227 11.0857 8.85892C11.0685 7.33723 9.85198 6.11156 8.31949 6.11426C6.75675 6.11696 5.53864 7.3664 5.55485 8.90753C5.57159 10.4503 6.82805 11.6446 8.30814 11.6398ZM8.32041 13.1184C6.13592 13.1794 3.93199 11.2493 4.06001 8.66241C4.1648 6.53194 5.91931 4.5846 8.37659 4.61161C10.7755 4.63753 12.6138 6.60055 12.5954 8.9109C12.5765 11.231 10.6551 13.1675 8.32041 13.1184Z" fill="white"/>
<path fill-rule="evenodd" clip-rule="evenodd" d="M11.7423 4.44608C11.7439 3.90266 12.2101 3.44135 12.7578 3.45539C13.311 3.46998 13.7572 3.88861 13.7501 4.46823C13.7442 5.02353 13.3072 5.45946 12.7595 5.46324C12.1345 5.46756 11.7347 4.94034 11.7423 4.44608Z" fill="white"/>
</svg>
