<svg width="31" height="30" viewBox="0 0 31 30" fill="none" xmlns="http://www.w3.org/2000/svg">
<path fill-rule="evenodd" clip-rule="evenodd" d="M16.7181 23.1227H13.2812C13.1894 22.775 13.148 12.7573 13.2364 12.0804C14.3169 12.0233 15.4058 12.0592 16.563 12.0631V13.4352C16.5916 13.4397 16.6207 13.4448 16.6498 13.4492C16.7058 13.3843 16.7657 13.3227 16.8177 13.2544C17.5142 12.3525 18.4575 11.8957 19.5682 11.796C20.3845 11.7221 21.1912 11.8179 21.9599 12.1409C22.7022 12.4527 23.238 12.9734 23.5851 13.6967C23.9909 14.5437 24.1253 15.4507 24.1331 16.375C24.1511 18.4984 24.1466 20.6225 24.1488 22.7465C24.1494 22.8629 24.127 22.9799 24.1124 23.1255H20.6728C20.6605 22.9217 20.6386 22.7185 20.6375 22.5153C20.6297 20.6924 20.6375 18.8696 20.6118 17.0473C20.6056 16.6476 20.5261 16.2372 20.4085 15.8543C20.2406 15.3085 19.833 14.9871 19.2676 14.878C18.8455 14.7962 18.4267 14.8153 18.0169 14.9412C17.4364 15.1187 17.0534 15.5145 16.9151 16.0956C16.8082 16.5457 16.7332 17.0149 16.727 17.4767C16.7058 19.1937 16.7181 20.9108 16.7181 22.6278C16.7181 22.7762 16.7181 22.924 16.7181 23.1227Z" fill="white"/>
<path fill-rule="evenodd" clip-rule="evenodd" d="M10.9726 23.1173H7.58111C7.47306 22.7926 7.41987 12.8817 7.52792 12.0728C8.65544 12.0235 9.79023 12.0554 10.9149 12.0638C11.0236 12.4417 11.0717 22.2025 10.9726 23.1173Z" fill="white"/>
<path fill-rule="evenodd" clip-rule="evenodd" d="M9.22529 6.55079C10.3411 6.55246 11.2541 7.44485 11.2631 8.54157C11.2726 9.63774 10.3136 10.5783 9.20066 10.5643C8.08546 10.5503 7.19308 9.65061 7.19532 8.54269C7.19756 7.44205 8.10785 6.54855 9.22529 6.55079Z" fill="white"/>
</svg>
