<svg width="19" height="13" viewBox="0 0 19 13" fill="none" xmlns="http://www.w3.org/2000/svg">
<path fill-rule="evenodd" clip-rule="evenodd" d="M12.0307 6.55898C10.4069 5.72283 8.88395 4.93903 7.3125 4.12988V9.08895C8.89387 8.24067 10.4152 7.42546 12.0307 6.55898ZM9.09946 12.8828C7.37588 12.8255 5.2808 12.7604 3.18628 12.6794C2.8495 12.6667 2.51051 12.6045 2.182 12.5256C1.4401 12.3471 0.899381 11.905 0.678904 11.1659C0.51961 10.6323 0.387875 10.0783 0.338819 9.5255C0.153067 7.41775 0.140941 5.30668 0.409923 3.20388C0.461183 2.79931 0.57969 2.39253 0.731268 2.01276C1.03608 1.25156 1.63247 0.796279 2.43666 0.705332C3.37368 0.599503 4.31897 0.553203 5.26206 0.51462C8.25889 0.393358 11.2563 0.433043 14.252 0.558164C14.8115 0.581314 15.3742 0.621 15.9254 0.7136C16.7043 0.845335 17.2692 1.28739 17.584 2.02819C17.789 2.50883 17.8772 3.01372 17.9384 3.52964C18.0938 4.83927 18.0778 6.15441 18.0486 7.46735C18.0271 8.4391 17.9566 9.41361 17.8408 10.3787C17.7587 11.0606 17.4947 11.6906 16.9291 12.147C16.5593 12.4452 16.1332 12.5967 15.6691 12.6397C15.1543 12.6871 14.6384 12.729 14.1225 12.7456C12.5731 12.7952 11.0231 12.8316 9.09946 12.8828Z" fill="white"/>
</svg>
